<svg xmlns="http://www.w3.org/2000/svg" xmlns:xlink="http://www.w3.org/1999/xlink" width="57.32" height="57.1" viewBox="0 0 57.32 57.1">
  <defs>
    <clipPath id="clip-path">
      <rect id="Rectangle_2345" data-name="Rectangle 2345" width="57.32" height="57.1" fill="#fd0"/>
    </clipPath>
    <clipPath id="clip-path-2">
      <rect id="Rectangle_2346" data-name="Rectangle 2346" width="12.912" height="12.908" fill="#fd0"/>
    </clipPath>
  </defs>
  <g id="Group_645" data-name="Group 645" transform="translate(-40 -4.704)">
    <g id="Group_644" data-name="Group 644" transform="translate(40 4.704)">
      <g id="Group_641" data-name="Group 641" transform="translate(0 0)">
        <g id="Group_640" data-name="Group 640" clip-path="url(#clip-path)">
          <path id="Path_2435" data-name="Path 2435" d="M6.111,26.167a4.093,4.093,0,0,0-3.121,1.1c-2.07,3.024,3.184,2.6,4.661,2.666-.956.811-4.607,4.642-4.824,5.549-.245,1.015-.245,9.112-.268,10.857-.031,2.348-.548,7.679,1.182,9.03H.865a.866.866,0,0,0,0,1.731h55.59a.866.866,0,0,0,0-1.731H53.56c2.2-1.777.928-10.866.978-14.075.1-5.911-.086-7.579-4.879-11.36,1.568-.072,6.279.494,4.775-2.48-.453-.9-3.334-2.022-4.4-.78-2.156,2.52-1.925-.19-3.9-3.028-.213-.426-.407-.811-.6-1.165a2.714,2.714,0,0,1-.774.617l3.275,6.346c-2-.014-4.009-.1-6.029-.195-.983,1.02-2.7,1.609-3.828.539a2,2,0,0,0-1-.485,2.749,2.749,0,0,0-.834,1.7,1.7,1.7,0,0,1,.1.431,2.881,2.881,0,0,1-2.233,2.8c-1.359.489-3.162.127-3.7-1.36l-.009-.018c-.081-.249-.394-.82-.666-.916a2.8,2.8,0,0,0-1.508,1.056c-.349,1.519-2.107,2.049-3.484,1.736-1.454-.281-2.858-1.5-2.487-3.091a1.915,1.915,0,0,0-.109-1.083c-.412-.118-1.572-.172-1.826.113-1.042,1.192-2.922.694-3.954-.254a3.807,3.807,0,0,1-.829-1.12c-2.188.113-4.331.186-6.382.15a38.8,38.8,0,0,1,2.365-4.764c.168-.3.317-.571.453-.825a3.668,3.668,0,0,1-.6-.984,43.333,43.333,0,0,0-2.206,3.939c-1.454,2.865-1.191-.5-3.171-.644m3.678,29.2c.947-.667.689-2.081.757-3.708,6.374-.444,29.874-.444,36.22,0,.068,1.582-.2,3.028.761,3.708Zm5.69-47.222a3.325,3.325,0,0,1,.394,2.811,2.043,2.043,0,0,1-2.056.517c-.874-.2-1.821.635-2.066,1.9a2,2,0,0,0,1.073,2.534c.947.2,1.622,1.745,1.662,2.262.077.512-.552,1.188-1.427,1.423a2.132,2.132,0,0,0-.906,2.733c.353,1.192,1.418,1.945,2.292,1.668.829-.317,1.785-.159,2.02.317a2.988,2.988,0,0,1-.041,2.77,2.11,2.11,0,0,0,.6,2.733c.906.834,2.215.993,2.808.317s2.256-.512,2.773-.317c.476.2.715,1.115.552,1.981-.235.952.593,1.9,1.862,2.14a2,2,0,0,0,2.537-1.147c.24-.87,1.744-1.623,2.256-1.664s1.192.63,1.468,1.469a2.037,2.037,0,0,0,2.691.87c1.186-.358,1.939-1.392,1.621-2.221-.276-.911.716-2.3,1.151-2.616.394-.317,1.309-.041,1.979.553.67.635,1.9.4,2.768-.553.8-.952.956-2.18.285-2.81s-.521-2.3-.285-2.779c.2-.471,1.073-.712,1.943-.512.951.2,1.9-.671,2.143-1.863.276-1.269-.24-2.411-1.155-2.611-.865-.163-1.581-1.7-1.662-2.221-.036-.558.634-1.147,1.468-1.469a1.981,1.981,0,0,0,.91-2.652c-.4-1.233-1.422-1.94-2.256-1.664-.87.236-2.3-.712-2.614-1.115-.312-.472-.036-1.342.594-2.017s.353-1.945-.594-2.774a2.086,2.086,0,0,0-2.813-.322,2.985,2.985,0,0,1-2.727.363c-.48-.2-.756-1.151-.561-2.026.24-.866-.67-1.822-1.857-2.1a2.129,2.129,0,0,0-2.614,1.151c-.159.911-1.7,1.628-2.215,1.664-.521,0-1.151-.589-1.468-1.5C25.729.5,24.547.142,23.356.5a2.039,2.039,0,0,0-1.663,2.3,3.089,3.089,0,0,1-1.15,2.534c-.435.322-1.3.077-1.98-.553-.67-.594-1.939-.317-2.768.553-.833.952-1,2.262-.317,2.815m10.092-.63h0A9.966,9.966,0,1,1,19.2,20.038a9.966,9.966,0,0,1,6.369-12.52m-6.8,35.612A3.237,3.237,0,0,0,22,46.357H35.324a3.236,3.236,0,0,0,3.225-3.227V40.9a3.239,3.239,0,0,0-3.225-3.228H22A3.24,3.24,0,0,0,18.771,40.9Zm-4.1.009A3.95,3.95,0,0,0,16.43,41.23c-1.989-1.174-9.381-1.7-11.651-1.247-1.024,6.016,7.8,4.148,9.889,3.155M40.89,41.23a3.95,3.95,0,0,0,1.762,1.908c2.084.992,10.912,2.86,9.889-3.155-2.27-.449-9.662.073-11.651,1.247" transform="translate(0 0)" fill="#fd0" fill-rule="evenodd"/>
        </g>
      </g>
      <g id="Group_643" data-name="Group 643" transform="translate(22.165 11.082)">
        <g id="Group_642" data-name="Group 642" transform="translate(0 0)" clip-path="url(#clip-path-2)">
          <path id="Path_2436" data-name="Path 2436" d="M9.392,7.718a.35.35,0,0,0-.5,0l-.308.3c-.5-.508-.933-.929-1.35-1.346L8.717,5.188l.621-.621a2.371,2.371,0,0,0,3.171-2.838l-.068-.236L10.833,3.108,9.492,1.766,11.1.152,10.869.089A2.364,2.364,0,0,0,8.033,3.257l-.62.625v0L5.922,5.37c-.747-.739-1.649-1.637-2.99-2.978a.014.014,0,0,0,0-.009l-.643-1.1a.14.14,0,0,0-.041-.05L1.157.478A.151.151,0,0,0,.967.5L.482.982a.145.145,0,0,0-.018.19L1.216,2.26a.242.242,0,0,0,.05.045l1.1.644h.009c1.3,1.3,2.215,2.217,2.99,2.983L3.875,7.418l-.621.621A2.367,2.367,0,0,0,.088,10.877l.064.236L1.764,9.5,3.1,10.841,1.492,12.455l.235.064A2.367,2.367,0,0,0,4.563,9.35l.62-.626,1.49-1.491c.44.435.87.861,1.355,1.351l-.3.3a.35.35,0,0,0,0,.5L11.141,12.8a.349.349,0,0,0,.5,0l1.169-1.17a.351.351,0,0,0,0-.5Zm1.744,4.32L8.491,9.39l.281-.277,2.641,2.643Zm.625-.63L9.12,8.765,9.4,8.484l2.645,2.647Z" transform="translate(0 0)" fill="#fd0" fill-rule="evenodd"/>
        </g>
      </g>
    </g>
  </g>
</svg>
